<?xml version="1.0" encoding="UTF-8"?>
<svg id="Layer_2" data-name="Layer 2" xmlns="http://www.w3.org/2000/svg" viewBox="0 0 207 85">
  <defs>
    <style>
      .cls-1 {
        fill: #f85d1d;
        stroke-width: 0px;
      }
    </style>
  </defs>
  <g id="_レイヤー_1" data-name="レイヤー 1">
    <g>
      <polygon class="cls-1" points="1.33 .46 0 9.54 46.39 9.54 47.08 .46 1.33 .46"/>
      <text/>
      <path class="cls-1" d="m150.03,73.34h-22.81c-.25-1.11-.09-2.2-.03-3.27.37-6.9.76-13.81,1.15-20.71.3-5.24.61-10.47.9-15.71.23-4.19.44-8.38.67-12.57.23-4.09.47-8.19.71-12.28.14-2.47.28-4.95.42-7.42.02-.28.06-.55.09-.8.76-.33,21.24-.45,22.91-.14.08,1.19-.04,2.41-.11,3.62-.3,5.47-.63,10.94-.95,16.42-.05.9-.06,1.83-.2,2.7-.1.62-.33,1.23-.59,1.74-1.79,3.47-3.59,6.94-5.44,10.35-.48.89-.54,1.54-.13,2.53,1.4,3.39,2.72,6.86,4.1,10.28.39.97.61,1.93.54,3.1-.28,4.61-.51,9.24-.75,13.85-.1,1.86-.18,3.72-.28,5.57-.05.89-.13,1.78-.2,2.72Zm-6.8-14.48c.21-1.2.48-2.38-.01-3.48-1.59-3.57-3.2-7.1-4.83-10.63-.15-.32-.43-.64-.68-.69-.46-.1-.95,0-1.52.02-.22,5.02-.62,9.84-.76,14.78h7.79Zm-6.21-29.63c1.36.64,1.77.47,2.51-.86,1.84-3.29,3.65-6.6,5.53-9.85.63-1.1.7-2.27.61-3.55-.9-.37-6.87-.37-7.85.03-.26,4.67-.53,9.4-.8,14.21Z"/>
      <path class="cls-1" d="m203.06,73.32h-22.86c.12-4.8.51-9.47.74-14.36,1.77-.03,3.46-.01,5.15-.01,1.7,0,3.41,0,5.11,0s3.4,0,5.23,0c.27-4.93.54-9.72.82-14.64-1.1-.28-2.11-.12-3.11-.15-1.02-.03-2.03,0-3.05,0h-9.1c-.21-1.28,1.95-41.38,2.31-43.6.76-.3,21.6-.36,22.65-.07.22,1.11-.36,12.65-.74,14.13-.38.03-.8.1-1.21.1-4.23,0-8.46,0-12.68,0-.42,0-.84.07-1.39.12-.27,4.82-.53,9.55-.81,14.47,1.39.17,2.65.07,3.92.09,1.28.02,2.56,0,3.83,0h7.52c.21,1.42-1.85,39.76-2.34,43.92Z"/>
      <path class="cls-1" d="m91.28,58.93c.62-9.84,1.09-19.59,1.64-29.33.54-9.7,1.04-19.4,1.6-29.18h7.44c.15,1.38-3.79,71.78-4.08,72.92h-22.65c-.16-1.1,3.72-71.61,4.02-72.92h7.34c-.54,9.81-1.06,19.51-1.6,29.2-.54,9.7-1.11,19.39-1.62,29.32,2.69,0,5.23.02,7.9-.01Z"/>
      <path class="cls-1" d="m176.47,73.36h-22.86c-.03-.33-.1-.65-.09-.95.22-3.95.45-7.9.67-11.86.23-4.05.45-8.1.67-12.14.24-4.24.47-8.48.71-12.71.22-4,.44-8,.67-12,.24-4.33.48-8.67.72-13,.16-2.91.32-5.81.47-8.72.08-1.62.08-1.65,1.22-1.66,1.74,0,3.48,0,5.21,0,.32,0,.65.04,1.1.08-.08,3.98-.41,7.85-.58,11.73-.18,3.86-.43,7.71-.65,11.57-.22,3.9-.45,7.81-.66,11.71-.21,3.86-.41,7.72-.62,11.58-.21,3.9-.43,7.8-.64,11.65.79.38,6.17.49,7.8.19.06-.3.18-.65.2-1,.22-3.91.41-7.81.63-11.72.22-4.1.45-8.19.68-12.29.23-4.19.46-8.38.69-12.57.23-4.14.45-8.29.67-12.43.11-2.05.22-4.1.33-6.14.04-.71.11-1.41.16-2.06.92-.39,6.66-.39,7.56,0-1.34,24.2-2.69,48.42-4.04,72.76Z"/>
      <path class="cls-1" d="m63.33,73.33c1.08-19.54,2.16-38.91,3.24-58.42-.42-.08-.73-.18-1.04-.19-1.97-.02-3.93-.02-5.9,0-.97,0-1,.11-1.08,1.58-.23,4.24-.49,8.48-.72,12.71-.23,4.1-.43,8.19-.66,12.29-.23,4.14-.48,8.29-.71,12.43-.16,2.86-.31,5.72-.47,8.57-.2,3.62-.41,7.24-.61,10.83-.74.34-6.35.41-7.44.11-.25-1.09,3.76-70.65,3.95-72.65.71-.34,21.55-.44,22.75-.11.23,1.16-3.72,71.05-4.03,72.93-2.37-.02-4.78.08-7.29-.08Z"/>
      <path class="cls-1" d="m108.75,73.33c.49-9.83,1.06-19.52,1.61-29.22.55-9.7,1.06-19.4,1.6-29.27-2.57-.3-5.06.01-7.49-.19-.24-1.24.33-12.77.66-14.14.91-.3,21.95-.28,22.85.07-.26,4.61-.52,9.25-.79,14.01-.42.05-.77.12-1.12.12-1.74.01-3.47,0-5.21.01-.39,0-.77.08-1.28.13-1.09,19.52-2.17,38.96-3.26,58.47h-7.57Z"/>
      <path class="cls-1" d="m155.7,85h-3.55c-.39-.39,1.48-6.95,2.16-7.56h12.57c.04.1.17.22.13.34-.34,1.17-.73,2.33-1.05,3.5-.1.36-.22.7-2.21.71.55,1,2.36,1.94.72,2.98h-3.38c-.08-.06-.22-.12-.19-.16.43-.91-1.12-1.72-1.94-2.57-.17-.18-.49-.3-1.25-.29-.95.01-1.04.2-1.09.38-.18.59-.32,1.19-.51,1.78-.09.28-.25.56-.39.88Zm6.87-6.11h-4.74c-.46.55-.66,1.07-.39,1.61h4.64c.16-.54.32-1.04.49-1.61Z"/>
      <path class="cls-1" d="m84.08,77.41c3.41,0,6.89,0,10.37,0,.67,0,1.34,0,2.31,0-.78,2.56-1.54,5.05-2.32,7.58h-12.63c-.43-.41,1.53-7.06,2.27-7.58Zm3.25,1.49c-.48,1.59-.94,3.12-1.42,4.72,1.44,0,2.58.02,3.71.02.93,0,1.27-.14,1.33-.38.37-1.29.8-2.57,1.18-3.86.05-.15-.06-.31-.11-.5h-4.69Z"/>
      <path class="cls-1" d="m189.46,77.43h12.49c.46.48.09.93-.37,1.43h-8.68c-.21.55-.4,1.06-.61,1.64,3.02.1,5.89,0,8.99.07-.34,1.48-.84,2.94-1.37,4.42h-12.92c.09-.42.19-.84.3-1.33,3.03-.01,5.88-.02,8.78-.04.74-.55.57-1.06.61-1.66-2.85-.02-5.61-.04-8.32-.06-.46-.43.33-3.56,1.1-4.48Z"/>
      <path class="cls-1" d="m121.19,83.59h4.78c.32-1.04.64-2.06.96-3.07.32-1.02.63-2.04.96-3.08h3.63c.59.43-1.67,6.91-2.15,7.55h-12.41c-.38-.38,1.29-6.42,2.11-7.54h3.61c0,.25.07.51-.01.77-.48,1.56-1,3.12-1.48,4.68-.07.21,0,.43,0,.69Z"/>
      <path class="cls-1" d="m54.96,84.99h-3.97c.61-2.04,1.2-4.04,1.81-6.09-1.53-.03-2.8-.05-4.34-.08.09-.47.18-.91.27-1.38h12.9c.12.45-.07.9-.33,1.38-1.42.02-2.69.04-4.25.06-.96,2.02-1.17,4.05-2.09,6.1Z"/>
      <polygon class="cls-1" points="9.6 26.37 8.56 35.44 44.88 35.44 45.43 26.37 9.6 26.37"/>
      <polygon class="cls-1" points="5.03 13.22 3.83 22.3 45.48 22.3 46.1 13.22 5.03 13.22"/>
      <polygon class="cls-1" points="14.4 39.51 13.52 48.58 44.29 48.58 44.75 39.51 14.4 39.51"/>
      <polygon class="cls-1" points="18.1 52.58 17.35 61.66 43.68 61.66 44.08 52.58 18.1 52.58"/>
      <polygon class="cls-1" points="24 64.4 23.43 73.48 43.33 73.48 43.63 64.4 24 64.4"/>
    </g>
  </g>
</svg>