<?xml version="1.0" encoding="UTF-8"?>
<svg id="_レイヤー_2" data-name="レイヤー 2" xmlns="http://www.w3.org/2000/svg" viewBox="0 0 44.44 47.64">
  <defs>
    <style>
      .cls-1 {
        fill: #e55927;
      }
    </style>
  </defs>
  <g id="_レイヤー_1-2" data-name="レイヤー 1">
    <g>
      <path class="cls-1" d="m33.33,0H11.11C5,0,0,5.36,0,11.91v23.82c0,6.55,5,11.91,11.11,11.91h22.22c6.11,0,11.11-5.36,11.11-11.91V11.91c0-6.55-5-11.91-11.11-11.91Zm7.41,35.73c0,4.38-3.32,7.94-7.41,7.94H11.11c-4.08,0-7.41-3.56-7.41-7.94V11.91c0-4.38,3.32-7.94,7.41-7.94h22.22c4.09,0,7.41,3.56,7.41,7.94,0,0,0,23.82,0,23.82Z"/>
      <ellipse class="cls-1" cx="34.26" cy="10.92" rx="2.78" ry="2.98"/>
      <path class="cls-1" d="m22.22,11.91c-6.14,0-11.11,5.33-11.11,11.91s4.97,11.91,11.11,11.91,11.11-5.33,11.11-11.91-4.97-11.91-11.11-11.91Zm0,19.85c-4.09,0-7.41-3.55-7.41-7.94s3.32-7.94,7.41-7.94,7.41,3.55,7.41,7.94-3.32,7.94-7.41,7.94Z"/>
    </g>
  </g>
</svg>