<?xml version="1.0" encoding="UTF-8"?>
<svg id="Layer_2" data-name="Layer 2" xmlns="http://www.w3.org/2000/svg" viewBox="0 0 190.88 64.07">
  <defs>
    <style>
      .cls-1 {
        stroke-width: 0px;
      }
    </style>
  </defs>
  <g id="_レイヤー_1" data-name="レイヤー 1">
    <g>
      <polygon class="cls-1" points="1.23 .35 0 7.19 42.77 7.19 43.42 .35 1.23 .35"/>
      <text/>
      <path class="cls-1" d="m138.34,55.28h-21.03c-.23-.84-.08-1.66-.03-2.46.34-5.2.7-10.41,1.06-15.61.27-3.95.56-7.89.83-11.84.22-3.16.41-6.32.62-9.48.21-3.09.43-6.17.65-9.25.13-1.87.26-3.73.39-5.6.01-.21.06-.42.08-.6.7-.25,19.59-.34,21.13-.1.07.9-.04,1.82-.1,2.73-.27,4.13-.58,8.25-.87,12.37-.05.68-.06,1.38-.18,2.04-.09.47-.3.93-.55,1.31-1.65,2.62-3.31,5.23-5.01,7.8-.44.67-.49,1.16-.12,1.91,1.29,2.56,2.51,5.17,3.78,7.75.36.73.56,1.46.5,2.34-.26,3.48-.47,6.96-.69,10.44-.09,1.4-.16,2.8-.26,4.2-.05.67-.12,1.34-.19,2.05Zm-6.27-10.91c.2-.9.44-1.79-.01-2.63-1.46-2.69-2.95-5.36-4.45-8.01-.14-.24-.4-.48-.63-.52-.43-.07-.87,0-1.4.02-.21,3.79-.57,7.42-.7,11.14h7.19Zm-5.73-22.33c1.25.48,1.63.36,2.32-.64,1.69-2.48,3.37-4.98,5.09-7.42.59-.83.65-1.71.57-2.67-.83-.28-6.33-.28-7.24.02-.24,3.52-.49,7.09-.74,10.71Z"/>
      <path class="cls-1" d="m187.24,55.27h-21.08c.11-3.62.47-7.14.68-10.82,1.63-.02,3.19,0,4.75-.01,1.57,0,3.14,0,4.72,0s3.13,0,4.82,0c.25-3.72.5-7.32.75-11.04-1.02-.21-1.95-.09-2.87-.11-.94-.02-1.87,0-2.81,0h-8.39c-.19-.97,1.8-31.19,2.13-32.87.7-.23,19.92-.27,20.89-.05.2.84-.33,9.53-.68,10.65-.35.02-.74.07-1.12.07-3.9,0-7.8,0-11.7,0-.39,0-.77.05-1.28.09-.25,3.63-.49,7.2-.74,10.91,1.28.13,2.45.05,3.61.07,1.18.01,2.36,0,3.54,0h6.93c.19,1.07-1.71,29.97-2.16,33.11Z"/>
      <path class="cls-1" d="m84.17,44.42c.57-7.42,1.01-14.77,1.51-22.11.5-7.31.96-14.62,1.48-22h6.86c.14,1.04-3.5,54.11-3.76,54.97h-20.89c-.15-.83,3.43-53.98,3.71-54.97h6.76c-.49,7.4-.97,14.7-1.47,22.01-.5,7.31-1.02,14.62-1.49,22.1,2.48,0,4.82.02,7.29-.01Z"/>
      <path class="cls-1" d="m162.73,55.3h-21.08c-.03-.25-.1-.49-.08-.72.2-2.98.42-5.96.62-8.94.21-3.05.41-6.1.62-9.15.22-3.19.44-6.39.65-9.58.21-3.02.41-6.03.61-9.05.22-3.27.45-6.53.67-9.8.15-2.19.3-4.38.43-6.57.07-1.22.07-1.24,1.12-1.25,1.6,0,3.2,0,4.81,0,.3,0,.59.03,1.01.06-.07,3-.38,5.92-.54,8.84-.16,2.91-.4,5.82-.6,8.72-.21,2.94-.41,5.89-.61,8.83-.2,2.91-.38,5.82-.57,8.73-.2,2.94-.4,5.88-.59,8.78.73.29,5.69.37,7.2.14.06-.23.16-.49.18-.76.2-2.94.38-5.89.58-8.83.2-3.09.42-6.18.62-9.26.21-3.16.43-6.32.64-9.48.21-3.12.41-6.25.62-9.37.1-1.54.2-3.09.31-4.63.04-.53.1-1.06.15-1.55.85-.29,6.15-.29,6.97,0-1.24,18.24-2.48,36.5-3.73,54.85Z"/>
      <path class="cls-1" d="m58.4,55.28c1-14.73,1.99-29.33,2.99-44.04-.39-.06-.67-.14-.96-.14-1.81-.01-3.63-.02-5.44,0-.9,0-.92.08-1,1.19-.21,3.2-.45,6.39-.66,9.58-.21,3.09-.4,6.18-.61,9.26-.21,3.12-.44,6.25-.65,9.37-.15,2.15-.28,4.31-.43,6.46-.18,2.73-.37,5.45-.56,8.16-.68.26-5.86.31-6.86.08-.23-.82,3.46-53.25,3.64-54.77.65-.25,19.87-.33,20.97-.08.21.88-3.43,53.56-3.71,54.97-2.19-.02-4.4.06-6.72-.06Z"/>
      <path class="cls-1" d="m100.28,55.27c.45-7.41.98-14.72,1.48-22.03.5-7.31.98-14.62,1.47-22.06-2.37-.22-4.66,0-6.91-.14-.22-.93.3-9.63.61-10.66.84-.23,20.24-.21,21.08.05-.24,3.48-.48,6.97-.72,10.56-.39.04-.71.09-1.03.09-1.6,0-3.2,0-4.81,0-.36,0-.71.06-1.18.1-1,14.71-2,29.37-3,44.08h-6.98Z"/>
      <path class="cls-1" d="m143.57,64.07h-3.28c-.36-.3,1.36-5.24,1.99-5.7h11.59c.04.08.15.17.12.26-.31.88-.67,1.76-.97,2.64-.09.27-.21.53-2.04.53.51.75,2.17,1.46.67,2.25h-3.11c-.07-.05-.2-.09-.18-.12.4-.69-1.03-1.3-1.79-1.94-.16-.13-.45-.22-1.16-.22-.88,0-.96.15-1.01.29-.17.45-.3.89-.47,1.34-.08.21-.23.43-.36.67Zm6.34-4.6h-4.37c-.43.41-.61.81-.36,1.22h4.28c.15-.41.29-.79.45-1.22Z"/>
      <path class="cls-1" d="m77.54,58.35c3.14,0,6.35,0,9.56,0,.62,0,1.23,0,2.13,0-.72,1.93-1.42,3.81-2.14,5.71h-11.65c-.39-.31,1.41-5.32,2.09-5.71Zm2.99,1.12c-.44,1.2-.87,2.35-1.31,3.56,1.33,0,2.38.01,3.42.01.86,0,1.17-.11,1.23-.28.34-.97.74-1.94,1.09-2.91.04-.12-.06-.23-.1-.37h-4.33Z"/>
      <path class="cls-1" d="m174.7,58.37h11.52c.42.36.09.7-.34,1.08h-8c-.19.42-.37.8-.57,1.24,2.79.07,5.43,0,8.29.05-.31,1.12-.78,2.21-1.26,3.33h-11.91c.09-.32.17-.63.27-1,2.8,0,5.42-.02,8.1-.03.68-.41.52-.8.57-1.25-2.62-.02-5.17-.03-7.67-.04-.43-.33.3-2.69,1.02-3.37Z"/>
      <path class="cls-1" d="m111.75,63.01h4.41c.3-.78.59-1.55.88-2.32.29-.77.59-1.53.88-2.32h3.35c.55.32-1.54,5.21-1.98,5.69h-11.45c-.35-.28,1.19-4.84,1.95-5.68h3.33c0,.19.06.38-.01.58-.44,1.18-.92,2.35-1.36,3.53-.06.16,0,.32,0,.52Z"/>
      <path class="cls-1" d="m50.68,64.06h-3.66c.56-1.53,1.11-3.04,1.67-4.59-1.41-.02-2.58-.04-4.01-.06.08-.35.16-.68.25-1.04h11.9c.11.34-.07.68-.3,1.04-1.31.02-2.49.03-3.92.05-.89,1.52-1.08,3.05-1.92,4.6Z"/>
      <polygon class="cls-1" points="8.86 19.87 7.89 26.71 41.39 26.71 41.89 19.87 8.86 19.87"/>
      <polygon class="cls-1" points="4.63 9.97 3.53 16.81 41.94 16.81 42.51 9.97 4.63 9.97"/>
      <polygon class="cls-1" points="13.28 29.78 12.46 36.62 40.84 36.62 41.27 29.78 13.28 29.78"/>
      <polygon class="cls-1" points="16.69 39.64 16 46.48 40.28 46.48 40.65 39.64 16.69 39.64"/>
      <polygon class="cls-1" points="22.13 48.55 21.6 55.39 39.95 55.39 40.23 48.55 22.13 48.55"/>
    </g>
  </g>
</svg>