<?xml version="1.0" encoding="UTF-8"?>
<svg id="_レイヤー_2" data-name="レイヤー 2" xmlns="http://www.w3.org/2000/svg" viewBox="0 0 47.28 47.64">
  <defs>
    <style>
      .cls-1 {
        fill: #e55927;
      }
    </style>
  </defs>
  <g id="_レイヤー_1-2" data-name="レイヤー 1">
    <path class="cls-1" d="m27.42,47.64v-16.64c1.47,0,2.93-.04,4.39.02.77.03,1.11-.16,1.2-1.02.21-1.95.56-3.88.87-5.94h-6.39c0-2.02-.16-3.94.05-5.83.16-1.44,1.52-2.28,3.14-2.38.55-.03,1.11-.02,1.67-.02h1.71v-5.96c-3.53-.41-7.08-1.16-10.41.95-2.29,1.45-3.35,3.71-3.58,6.36-.15,1.85-.09,3.71-.11,5.57v1.3h-5.98v6.93h5.88v16.64C10.94,48.07.58,36.57.03,25.59-.65,11.86,9.15.87,22.79.04c12.32-.75,23.65,9.6,24.43,22.22.89,14.39-9.85,24.17-19.81,25.38h0Z"/>
  </g>
</svg>