<?xml version="1.0" encoding="UTF-8"?>
<svg id="Layer_2" data-name="Layer 2" xmlns="http://www.w3.org/2000/svg" viewBox="0 0 109.4 47.64">
  <defs>
    <style>
      .cls-1 {
        fill: #3fa9f5;
        stroke-width: 0px;
      }
    </style>
  </defs>
  <g id="_レイヤー_1" data-name="レイヤー 1">
    <g>
      <g>
        <path class="cls-1" d="m33.33,0H11.11C5,0,0,5.36,0,11.91v23.82c0,6.55,5,11.91,11.11,11.91h22.22c6.11,0,11.11-5.36,11.11-11.91V11.91c0-6.55-5-11.91-11.11-11.91Zm7.41,35.73c0,4.38-3.32,7.94-7.41,7.94H11.11c-4.08,0-7.41-3.56-7.41-7.94V11.91c0-4.38,3.32-7.94,7.41-7.94h22.22c4.09,0,7.41,3.56,7.41,7.94v23.82Z"/>
        <ellipse class="cls-1" cx="34.26" cy="10.92" rx="2.78" ry="2.98"/>
        <path class="cls-1" d="m22.22,11.91c-6.14,0-11.11,5.33-11.11,11.91s4.97,11.91,11.11,11.91,11.11-5.33,11.11-11.91-4.97-11.91-11.11-11.91Zm0,19.85c-4.09,0-7.41-3.55-7.41-7.94s3.32-7.94,7.41-7.94,7.41,3.55,7.41,7.94-3.32,7.94-7.41,7.94Z"/>
      </g>
      <path class="cls-1" d="m89.54,47.64v-16.64c1.47,0,2.93-.04,4.39.02.77.03,1.11-.16,1.2-1.02.21-1.95.56-3.88.87-5.94h-6.39c0-2.02-.16-3.94.05-5.83.16-1.44,1.52-2.28,3.14-2.38.55-.03,1.11-.02,1.67-.02.55,0,1.09,0,1.71,0v-5.96c-3.53-.41-7.08-1.16-10.41.95-2.29,1.45-3.35,3.71-3.58,6.36-.15,1.85-.09,3.71-.11,5.57,0,.41,0,.82,0,1.3h-5.98v6.93h5.88v16.64c-8.92.45-19.28-11.05-19.83-22.03C61.47,11.86,71.27.87,84.91.04c12.32-.75,23.65,9.6,24.43,22.22.89,14.39-9.85,24.17-19.81,25.38Z"/>
    </g>
  </g>
</svg>